<svg xmlns="http://www.w3.org/2000/svg" xmlns:xlink="http://www.w3.org/1999/xlink" viewBox="0 0 410.07 412.94"><defs><style>.cls-1{fill:#fff;}.cls-2{fill:url(#GradientFill_3);}.cls-3{fill:#3e3e3d;}.cls-4{fill:url(#GradientFill_3-2);}.cls-5{fill:url(#GradientFill_3-3);}.cls-6{fill:#343433;}</style><linearGradient id="GradientFill_3" x1="-252.81" y1="226.59" x2="669.83" y2="226.59" gradientUnits="userSpaceOnUse"><stop offset="0" stop-color="#fdf287"/><stop offset="0.26" stop-color="#bd9137"/><stop offset="0.46" stop-color="#c59d44"/><stop offset="0.75" stop-color="#fcf5ad"/><stop offset="1" stop-color="#c59d44"/></linearGradient><linearGradient id="GradientFill_3-2" x1="-442.96" y1="-86.8" x2="466.05" y2="433.17" xlink:href="#GradientFill_3"/><linearGradient id="GradientFill_3-3" x1="134.73" y1="74.46" x2="275.34" y2="74.46" xlink:href="#GradientFill_3"/></defs><title>Asset 7</title><g id="Layer_2" data-name="Layer 2"><g id="full_badge" data-name="full badge"><path class="cls-1" d="M60.31,329.38c-21.7,2.73-34.38,5.61-42.07,7.56a9.58,9.58,0,0,1-2.38.3c-4.85,0-8.82-3.62-8.93-8.11L0,242.93v-.17a8.41,8.41,0,0,1,7-8.1c5.8-1.21,18-3.56,36.68-6.09V133.42L131.05,83a75.41,75.41,0,0,1-.48-8.5,74.46,74.46,0,0,1,148.92,0A75.41,75.41,0,0,1,279,83l87.4,50.46v95.15c18.65,2.53,30.88,4.88,36.69,6.09a8.42,8.42,0,0,1,7,8.1v.17l-6.93,86.2a8.08,8.08,0,0,1-2.9,5.93,9.36,9.36,0,0,1-6,2.18h0a9.45,9.45,0,0,1-2.37-.3c-7.69-1.95-20.37-4.83-42.08-7.56L205,412.94Z"/><polygon class="cls-2" points="362.25 317.37 362.25 135.82 205.03 45.05 47.81 135.82 47.81 317.37 205.03 408.14 362.25 317.37"/><polygon class="cls-3" points="353.96 312.57 353.96 140.61 205.03 54.63 56.11 140.61 56.11 312.57 205.03 398.56 353.96 312.57"/><path class="cls-4" d="M399,328.93c0,2.77-3.06,4.76-6.13,4-16.78-4.24-63.77-14.7-187.82-14.7S34,328.67,17.22,332.91c-3.07.78-6.14-1.21-6.14-4L4.16,242.76a4.31,4.31,0,0,1,3.66-4C23.6,235.43,90.3,223.07,205,223.07s181.43,12.36,197.22,15.66a4.31,4.31,0,0,1,3.66,4Z"/><path class="cls-5" d="M275.34,74.46A70.31,70.31,0,1,1,205,4.16,70.3,70.3,0,0,1,275.34,74.46Z"/><path class="cls-6" d="M261.66,74.46A56.63,56.63,0,1,1,205,17.84,56.62,56.62,0,0,1,261.66,74.46Z"/><path class="cls-3" d="M82.41,281.77c-.89-6.11-1.91-13.51-2.71-20.94l-.22,0c-.9,6.68-2.24,14.18-3.56,20.38l-4.08,20.59-9,1-7.57-19.19c-2.31-5.81-4.83-12.89-6.76-19.43h-.15c.43,6.93,1,14.84,1.36,21.24l1.17,19.49-10.69,1.15L38,254.66,53.35,253l6.82,16.51c2.23,5.73,4.5,11.93,6.28,17.79l.23,0c.8-6.07,1.82-13,2.88-18.86l3.64-17.55,15.07-1.62L96.55,300l-11.29,1.21Z"/><path class="cls-3" d="M40,306.29l-2.24-51.82,15.73-1.68,6.88,16.65c2.69,6.93,4.66,12.48,6.17,17.42.66-5,1.68-12.07,2.83-18.46L73,250.69,88.44,249l8.35,51.16-11.7,1.26L82.21,281.8c-.8-5.51-1.81-12.73-2.63-20.2-.85,6.19-2.1,13.31-3.46,19.68L72,302l-9.32,1-7.63-19.34c-2.39-6-4.71-12.62-6.45-18.37.14,2.09.29,4.25.44,6.42.32,4.69.65,9.53.85,13.69l1.18,19.69Zm-1.81-51.45,2.2,51,10.27-1.1-1.16-19.3c-.2-4.15-.53-9-.85-13.68-.18-2.57-.35-5.12-.51-7.55V264l.52-.05,0,.16c1.76,6,4.22,13.05,6.75,19.41L63,302.58l8.71-.94,4-20.44c1.42-6.61,2.72-14,3.56-20.37l0-.16.6-.06,0,.2c.83,7.72,1.88,15.24,2.7,20.93h0L85.44,301l10.87-1.17L88.1,249.48l-14.73,1.58-3.61,17.41c-1.18,6.55-2.22,13.86-2.88,18.84l0,.16-.56.06,0-.16c-1.53-5-3.52-10.68-6.28-17.78l-6.77-16.36Z"/><path class="cls-3" d="M113.55,247.7l1.63,29.52c.49,8.82,4.08,13.13,10,12.8s9.2-4.78,8.7-13.84l-1.63-29.52,11.56-.63,1.59,28.75c.87,15.83-6.7,23.8-20.09,24.54-12.93.72-20.94-6-21.84-22.37l-1.58-28.61Z"/><path class="cls-3" d="M123.53,299.58c-5.81,0-10.44-1.64-13.77-4.9-3.86-3.75-6-9.72-6.47-17.72l-1.6-28.81,12-.67,1.64,29.73c.48,8.57,3.87,12.94,9.81,12.6,6.12-.33,9-4.92,8.5-13.61l-1.64-29.73,12-.66,1.6,29c.85,15.42-6.16,24-20.28,24.76C124.73,299.56,124.12,299.58,123.53,299.58Zm-21.4-51,1.56,28.41c.44,7.9,2.58,13.77,6.35,17.45,3.59,3.5,8.73,5.09,15.28,4.73,13.85-.77,20.73-9.18,19.89-24.32l-1.57-28.56-11.16.62,1.62,29.31c.5,9-2.5,13.7-8.89,14.05-6.21.35-9.75-4.15-10.23-13l-1.62-29.32Z"/><path class="cls-3" d="M156.41,285.08A29.72,29.72,0,0,0,169.35,288c5.33-.12,8.1-2.39,8-5.74-.07-3.2-2.55-5-8.77-7.05-8.59-2.79-14.25-7.39-14.42-14.86-.19-8.76,7-15.62,19.09-15.88a31.48,31.48,0,0,1,13.16,2.31l-2.39,9.42a24.44,24.44,0,0,0-10.79-2.2c-5,.11-7.41,2.44-7.36,5.11.07,3.28,3,4.66,9.68,7,9.14,3.16,13.51,7.79,13.66,15,.19,8.61-6.28,16.07-20.37,16.37-5.87.13-11.69-1.27-14.62-2.81Z"/><path class="cls-3" d="M168.11,297.75c-5.86,0-11.29-1.45-14-2.84l-.14-.08,2.24-10.05.23.11a29.29,29.29,0,0,0,12.85,2.9,10.38,10.38,0,0,0,5.93-1.61,4.56,4.56,0,0,0,1.9-3.92c-.06-3-2.24-4.73-8.62-6.86-9.51-3.08-14.41-8.14-14.56-15a14.28,14.28,0,0,1,5-11.29c3.48-3,8.42-4.68,14.29-4.8a31.85,31.85,0,0,1,13.24,2.32l.16.07-2.49,9.83-.22-.1a24.39,24.39,0,0,0-10.7-2.19c-4.42.1-7.22,2-7.16,4.91.07,3.15,3,4.5,9.54,6.84,9.38,3.24,13.64,7.93,13.8,15.21a14.43,14.43,0,0,1-4.9,11.45c-3.62,3.21-9,5-15.68,5.13Zm-13.62-3.14c2.78,1.42,8.39,2.85,14.37,2.72C184,297,189.2,288.77,189,281.17c-.15-7.08-4.33-11.66-13.53-14.84-6.76-2.4-9.74-3.81-9.81-7.22,0-2.37,1.9-5.19,7.56-5.32a24.8,24.8,0,0,1,10.66,2.13l2.28-9a31.53,31.53,0,0,0-12.91-2.22c-5.77.12-10.62,1.75-14,4.7a13.88,13.88,0,0,0-4.86,11c.15,6.8,4.82,11.6,14.28,14.66,6.5,2.18,8.83,4.07,8.9,7.24a5,5,0,0,1-2.07,4.26,10.72,10.72,0,0,1-6.16,1.69,29.91,29.91,0,0,1-12.8-2.83Z"/><path class="cls-3" d="M207.19,254.74l-13.79-.07,0-9.75,39.47.2,0,9.75-14-.07-.21,41.6L207,296.34Z"/><path class="cls-3" d="M218.85,296.61l-12.07-.06v-.21l.21-41.4-13.79-.06.05-10.17h.2l39.67.19-.05,10.17-14-.07Zm-11.66-.47,11.25.05.21-41.6,14,.07,0-9.34-39.06-.19,0,9.34,13.79.07v.2Z"/><path class="cls-3" d="M251.8,273.17l-.18,7.69-20-.47.18-7.69Z"/><path class="cls-3" d="M251.82,281.07l-20.37-.48.19-8.1L252,273Zm-19.95-.88,19.55.46.17-7.28L232,272.9Z"/><path class="cls-3" d="M259.2,285.26a29.62,29.62,0,0,0,12.71,3.8c5.33.25,8.25-1.82,8.4-5.17.15-3.2-2.2-5.14-8.26-7.64-8.38-3.37-13.71-8.35-13.36-15.81.41-8.75,8-15.11,20.13-14.53a31.47,31.47,0,0,1,13,3.2l-3,9.24a24.21,24.21,0,0,0-10.61-2.94c-5-.24-7.57,1.93-7.7,4.59-.15,3.28,2.67,4.86,9.18,7.68,8.9,3.78,12.94,8.7,12.6,15.93-.41,8.6-7.37,15.59-21.46,14.93-5.86-.28-11.57-2.07-14.39-3.8Z"/><path class="cls-3" d="M272.57,298.79c-.6,0-1.2,0-1.8,0-6.15-.29-11.82-2.2-14.49-3.84l-.14-.08,2.93-9.88.23.13a29.51,29.51,0,0,0,12.62,3.78c5,.23,8-1.63,8.19-5,.14-3-1.91-4.88-8.13-7.44-9.28-3.73-13.82-9.11-13.5-16a14.31,14.31,0,0,1,5.77-10.92c3.68-2.77,8.73-4.08,14.58-3.81a31.94,31.94,0,0,1,13.05,3.23l.16.08-3.16,9.64-.21-.12a24.46,24.46,0,0,0-10.53-2.92c-4.41-.2-7.35,1.52-7.48,4.4-.15,3.16,2.64,4.7,9,7.48,9.14,3.88,13.06,8.86,12.72,16.13a14.43,14.43,0,0,1-5.68,11.09C283.28,297.39,278.4,298.79,272.57,298.79Zm-15.94-4.15c2.68,1.6,8.18,3.42,14.15,3.7,6.54.3,12-1.06,15.72-3.95A14,14,0,0,0,292,283.6c.34-7.08-3.51-11.93-12.47-15.73-6.59-2.86-9.46-4.47-9.3-7.88.11-2.37,2.25-5.05,7.91-4.79a24.88,24.88,0,0,1,10.48,2.85l2.9-8.84a31.61,31.61,0,0,0-12.73-3.1c-5.76-.27-10.71,1-14.32,3.73a13.89,13.89,0,0,0-5.6,10.61c-.32,6.8,4,11.9,13.24,15.61,6.34,2.62,8.54,4.66,8.39,7.84-.17,3.6-3.39,5.61-8.62,5.36a29.81,29.81,0,0,1-12.58-3.7Z"/><path class="cls-3" d="M331.12,280.05l-18.83-1.51-1,12.15,21,1.69-.76,9.49-32.66-2.62L303,248.06l31.6,2.54-.77,9.49-20-1.6L313,269.12l18.84,1.51Z"/><path class="cls-3" d="M331.77,302.09l-33.06-2.65,4.14-51.6,32,2.57-.8,9.9-20-1.6-.83,10.22,18.84,1.52-.79,9.82-18.84-1.51-.94,11.74,21,1.69Zm-32.62-3,32.25,2.59.73-9.08-21-1.69,1-12.56,18.83,1.51.73-9-18.84-1.51.89-11,20,1.6.73-9.08-31.18-2.51Z"/><path class="cls-3" d="M371.91,284.75l-18.76-2.28-1.47,12.1,20.95,2.55-1.15,9.45L339,302.62l6.2-51,31.47,3.82-1.15,9.46-19.89-2.42-1.29,10.59,18.76,2.28Z"/><path class="cls-3" d="M371.66,306.8l-32.93-4,0-.2L345,251.41l31.87,3.88-1.2,9.86-19.89-2.42-1.24,10.18,18.76,2.28-1.2,9.79-18.75-2.29-1.43,11.7,21,2.55Zm-32.48-4.36,32.12,3.9,1.1-9-20.95-2.55L353,282.24l18.76,2.28,1.09-9-18.76-2.28,1.34-11,19.89,2.42,1.1-9.05-31.06-3.78Z"/><g id="metacritic"><path class="cls-1" d="M83,178.86c0-3.29-.11-6.1-.21-8.43h6.91l.38,3.57h.16a9.16,9.16,0,0,1,8-4.16,7.5,7.5,0,0,1,7.24,4.48h.11a11.71,11.71,0,0,1,3.4-3.18,9.48,9.48,0,0,1,5-1.3c5.08,0,8.92,3.56,8.92,11.45v15.56h-8V182.48c0-3.84-1.24-6-3.89-6a4,4,0,0,0-3.78,2.86,6.79,6.79,0,0,0-.32,2.11v15.45h-8v-14.8c0-3.35-1.19-5.62-3.78-5.62a4.19,4.19,0,0,0-3.84,3,5.46,5.46,0,0,0-.32,2v15.4H83Z"/><path class="cls-1" d="M135.77,186.26c.27,3.41,3.62,5,7.45,5a23.4,23.4,0,0,0,7.3-1.08l1.08,5.56a26.09,26.09,0,0,1-9.56,1.62c-9,0-14.11-5.18-14.11-13.45,0-6.7,4.16-14.1,13.35-14.1,8.53,0,11.78,6.64,11.78,13.18a20.31,20.31,0,0,1-.27,3.24Zm9.67-5.62c0-2-.87-5.34-4.65-5.34-3.46,0-4.86,3.13-5.08,5.34Z"/><path class="cls-1" d="M168.24,162.87v7.56h5.89v6h-5.89v9.57c0,3.18.76,4.64,3.24,4.64a14.2,14.2,0,0,0,2.43-.21l.06,6.21a16.2,16.2,0,0,1-5.35.7,8.53,8.53,0,0,1-6.16-2.27c-1.51-1.56-2.27-4.1-2.27-7.83V176.48h-3.51v-6h3.51v-5.72Z"/><path class="cls-1" d="M196.06,196.85l-.48-2.65h-.17a9.5,9.5,0,0,1-7.56,3.25c-5.35,0-8.54-3.89-8.54-8.11,0-6.86,6.16-10.15,15.51-10.1v-.38c0-1.4-.76-3.4-4.81-3.4a14.86,14.86,0,0,0-7.29,2l-1.51-5.3a21.84,21.84,0,0,1,10.26-2.32c8.81,0,11.62,5.19,11.62,11.4v9.18a41.12,41.12,0,0,0,.37,6.43Zm-1-12.48c-4.32-.05-7.67,1-7.67,4.16a3,3,0,0,0,3.24,3.14,4.5,4.5,0,0,0,4.27-3,5.78,5.78,0,0,0,.16-1.4Z"/><path class="cls-1" d="M228.32,196.2a20,20,0,0,1-7.35,1.19c-8.54,0-14-5.18-14-13.5,0-7.73,5.29-14,15.13-14a19,19,0,0,1,6.26,1l-1.29,6.1a11.35,11.35,0,0,0-4.6-.81c-4.32,0-7.13,3.08-7.07,7.4,0,4.86,3.24,7.4,7.24,7.4a12.64,12.64,0,0,0,4.7-.81Z"/><path class="cls-1" d="M233.94,179.13c0-3.89-.11-6.43-.22-8.7h7.08l.27,4.87h.22a7.76,7.76,0,0,1,7.13-5.46,8.39,8.39,0,0,1,1.73.11v7.72a11.77,11.77,0,0,0-2.22-.21c-3,0-5.08,1.62-5.62,4.16a9.45,9.45,0,0,0-.16,1.83v13.4h-8.21Z"/><path class="cls-1" d="M264,163.09a4.12,4.12,0,0,1-4.43,4.1,4.13,4.13,0,1,1,0-8.26A4.12,4.12,0,0,1,264,163.09Zm-8.48,33.76V170.43h8.21v26.42Z"/><path class="cls-1" d="M280.62,162.87v7.56h5.89v6h-5.89v9.57c0,3.18.75,4.64,3.24,4.64a14.3,14.3,0,0,0,2.43-.21l0,6.21a16.16,16.16,0,0,1-5.35.7,8.52,8.52,0,0,1-6.15-2.27c-1.52-1.56-2.27-4.1-2.27-7.83V176.48h-3.51v-6h3.51v-5.72Z"/><path class="cls-1" d="M300.82,163.09a4.12,4.12,0,0,1-4.43,4.1,4.13,4.13,0,1,1,.06-8.26A4.11,4.11,0,0,1,300.82,163.09Zm-8.48,33.76V170.43h8.21v26.42Z"/><path class="cls-1" d="M328.05,196.2a20,20,0,0,1-7.34,1.19c-8.54,0-14-5.18-14-13.5,0-7.73,5.3-14,15.13-14a19,19,0,0,1,6.27,1l-1.3,6.1a11.26,11.26,0,0,0-4.59-.81c-4.32,0-7.13,3.08-7.08,7.4,0,4.86,3.24,7.4,7.24,7.4a12.6,12.6,0,0,0,4.7-.81Z"/></g><path class="cls-1" d="M171.44,92c-4.49-4.49-8.39-8.09-11.77-11.19l9.49-9.49,5.37,4.49.22-.22a17.6,17.6,0,0,1,5.15-16.63c4.71-4.71,10.75-5.89,16-3.68l.14-.15a22.12,22.12,0,0,1,.3-9.12,19.26,19.26,0,0,1,5.08-8.61c6.91-6.92,17-7.29,27.74,3.46L250.4,62,239.51,72.92,220,53.42c-5.23-5.22-9.94-6.55-13.54-3-2.65,2.66-2.65,6.19-1.33,9.13a16.92,16.92,0,0,0,2.43,3.17l21.05,21L217.73,94.7,197.56,74.54c-4.49-4.49-9.2-6-12.8-2.35-2.87,2.87-2.35,6.76-1.25,9.19a10.66,10.66,0,0,0,2.43,3.32l20.89,20.89L196,116.48Z"/></g></g></svg>