<?xml version="1.0" encoding="UTF-8" standalone="no"?>
<!-- Created with Inkscape (http://www.inkscape.org/) -->

<svg
   width="23.622589mm"
   height="23.014339mm"
   viewBox="0 0 23.622589 23.014339"
   version="1.1"
   id="svg1"
   inkscape:version="1.4.3 (0d15f75, 2025-12-25)"
   sodipodi:docname="metacritic.svg"
   xmlns:inkscape="http://www.inkscape.org/namespaces/inkscape"
   xmlns:sodipodi="http://sodipodi.sourceforge.net/DTD/sodipodi-0.dtd"
   xmlns="http://www.w3.org/2000/svg"
   xmlns:svg="http://www.w3.org/2000/svg">
  <sodipodi:namedview
     id="namedview1"
     pagecolor="#505050"
     bordercolor="#eeeeee"
     borderopacity="1"
     inkscape:showpageshadow="0"
     inkscape:pageopacity="0"
     inkscape:pagecheckerboard="0"
     inkscape:deskcolor="#505050"
     inkscape:document-units="mm"
     inkscape:zoom="0.72604517"
     inkscape:cx="-101.23337"
     inkscape:cy="70.932225"
     inkscape:window-width="1920"
     inkscape:window-height="1017"
     inkscape:window-x="-8"
     inkscape:window-y="-8"
     inkscape:window-maximized="1"
     inkscape:current-layer="layer1" />
  <defs
     id="defs1" />
  <g
     inkscape:label="Layer 1"
     inkscape:groupmode="layer"
     id="layer1"
     transform="translate(-131.7625,-129.91042)">
    <path
       style="fill:#ffcc00;fill-opacity:1;fill-rule:evenodd;stroke-width:0.264895"
       d="m 155.38509,141.4176 c 0,6.35523 -5.2881,11.50716 -11.8113,11.50716 -6.5232,0 -11.81129,-5.15193 -11.81129,-11.50716 0,-6.35524 5.28809,-11.50718 11.81129,-11.50718 6.5232,0 11.8113,5.15194 11.8113,11.50718 z"
       id="path3140"
       inkscape:connector-curvature="0" />
    <path
       style="fill:#001b36;fill-opacity:1;fill-rule:evenodd;stroke-width:0.264895"
       d="m 154.17211,141.4283 c 0,5.73516 -4.74503,10.3844 -10.59832,10.3844 -5.85329,0 -10.59832,-4.64924 -10.59832,-10.3844 0,-5.73514 4.74503,-10.3844 10.59832,-10.3844 5.85329,0 10.59832,4.64926 10.59832,10.3844 z"
       id="path3142"
       inkscape:connector-curvature="0" />
    <g
       transform="matrix(0.33751915,-0.35686293,0.36210125,0.33430071,58.792204,157.59602)"
       style="font-style:normal;font-variant:normal;font-weight:normal;font-stretch:normal;font-size:40px;line-height:125%;font-family:Coalition;-inkscape-font-specification:Coalition;text-align:center;letter-spacing:0px;word-spacing:0px;writing-mode:lr-tb;text-anchor:middle;display:inline;fill:#ffffff;fill-opacity:1;fill-rule:evenodd;stroke:none"
       id="g3144">
      <path
         d="m 126.73438,92.087002 h 5.05859 v 2.832031 c 1.80989,-2.200501 3.96483,-3.30076 6.46484,-3.300781 1.32811,2.1e-5 2.48045,0.273458 3.45703,0.820312 0.97655,0.546895 1.77733,1.373717 2.40235,2.480469 0.91144,-1.106752 1.89451,-1.933574 2.94922,-2.480469 1.05466,-0.546854 2.18096,-0.820291 3.3789,-0.820312 1.52341,2.1e-5 2.81247,0.309265 3.86719,0.927734 1.05466,0.618509 1.84242,1.526711 2.36328,2.724609 0.37757,0.885434 0.56637,2.317724 0.56641,4.296875 v 13.26172 h -5.48828 v -11.85547 c -3e-5,-2.057277 -0.18883,-3.385401 -0.56641,-3.984375 -0.50784,-0.781233 -1.28909,-1.171858 -2.34375,-1.171875 -0.76825,1.7e-5 -1.49091,0.234392 -2.16797,0.703125 -0.6771,0.468766 -1.16538,1.155614 -1.46484,2.060547 -0.2995,0.904961 -0.44924,2.333998 -0.44922,4.287108 v 9.96094 h -5.48828 V 101.462 c -2e-5,-2.018214 -0.0977,-3.320296 -0.29297,-3.906248 -0.19533,-0.585922 -0.49806,-1.02212 -0.9082,-1.308594 -0.41017,-0.286442 -0.96681,-0.429671 -1.66993,-0.429688 -0.84636,1.7e-5 -1.60808,0.227882 -2.28515,0.683594 -0.6771,0.455745 -1.16212,1.113297 -1.45508,1.972656 -0.29298,0.859389 -0.43946,2.28517 -0.43945,4.27734 v 10.07813 h -5.48828 z"
         style="font-weight:bold;font-family:Arial;-inkscape-font-specification:'Arial Bold';fill:#ffffff;fill-rule:evenodd"
         id="path3146"
         inkscape:connector-curvature="0" />
    </g>
  </g>
</svg>
