<?xml version="1.0" encoding="UTF-8" standalone="no"?>
<svg
   width="48.390347"
   height="44.158852"
   viewBox="0 0 48.390346 44.158852"
   fill="none"
   version="1.1"
   id="svg15"
   sodipodi:docname="rogerebert.svg"
   inkscape:version="1.4.3 (0d15f75, 2025-12-25)"
   xmlns:inkscape="http://www.inkscape.org/namespaces/inkscape"
   xmlns:sodipodi="http://sodipodi.sourceforge.net/DTD/sodipodi-0.dtd"
   xmlns="http://www.w3.org/2000/svg"
   xmlns:svg="http://www.w3.org/2000/svg">
  <defs
     id="defs15" />
  <sodipodi:namedview
     id="namedview15"
     pagecolor="#505050"
     bordercolor="#eeeeee"
     borderopacity="1"
     inkscape:showpageshadow="0"
     inkscape:pageopacity="0"
     inkscape:pagecheckerboard="0"
     inkscape:deskcolor="#505050"
     inkscape:zoom="4.22"
     inkscape:cx="78.791469"
     inkscape:cy="33.530806"
     inkscape:window-width="1920"
     inkscape:window-height="1017"
     inkscape:window-x="-8"
     inkscape:window-y="-8"
     inkscape:window-maximized="1"
     inkscape:current-layer="svg15" />
  <path
     d="m 46.256055,18.843429 c -1.0898,-0.5919 -3.6657,-0.7892 -8.4212,-0.5919 h -0.2973 c -1.4861,0 -2.8731,0.1973 -3.8638,0.296 h -0.0991 c -0.1981,0 -0.4953,0 -0.6935,0.0986 0.1982,-0.7892 0.4954,-1.8743 0.8917,-3.2555 0.6935,-2.9595 0.3963,-4.5379 0.1981,-6.0177202 -0.0991,-0.29596 -0.0991,-0.59191 -0.0991,-0.98652 -0.1981,-1.97303 -1.1888,-4.63662 -1.8823,-5.91909 -0.9908,-1.77573298 -3.5667,-2.07168798 -3.8639,-2.07168798 -0.5944,-0.098652 -1.6842,-0.098652 -2.1796,0.69055798 -0.1981,0.29596 -0.2972,0.88787 -0.3963,2.36764 v 0.19731 c -0.0991,0 -0.0991,0.3946 -0.0991,0.98651 v 1.08517 c 0,0.98652 -0.099,2.17034 -0.099,2.95955 -0.0991,1.6770802 -1.288,3.9460802 -1.6843,4.6365802 -0.3963,0.6906 -1.5851,2.3677 -2.3777,3.5515 -0.4954,0.6906 -0.9907,1.3811 -1.1889,1.7757 -0.7926,1.2825 -2.4768,1.3812 -2.675,1.3812 -0.099,0 -0.1981,0.0986 -0.1981,0.0986 -0.0991,0.0987 -0.0991,0.1973 -0.0991,0.1973 l 0.0991,0.9865 c 0,0 0,0.1973 0.0991,0.296 0,0 0.099,0.0986 0.2972,0.0986 1.0898,-0.0986 2.9722,-0.4932 4.062,-2.269 0.1981,-0.2959 0.5944,-0.8878 1.0898,-1.4797 l 0.0991,-0.1973 c 0.8916,-1.2825 1.9814,-2.8609 2.4768,-3.6501 0.6935,-1.1839 1.7833,-3.4528 1.8824,-5.3272302 0,-0.78921 0.099,-1.87438 0.099,-2.76225 v -0.69056 c 0,-0.78921 0.0991,-1.47977 0.0991,-1.67707 v -0.19731 c 0,-0.69056 0.0991,-1.18382 0.0991,-1.38112 0.0991,0 0.2972,0 0.5944,0 0.3963,0 1.8824,0.29595 2.2787,1.08517 0.6935,1.18382 1.4861,3.55146 1.6842,5.32719 0,0.29595 0.0991,0.5919 0.0991,0.88786 v 0.1973 c 0.1982,1.3811202 0.4954,2.7622202 -0.1981,5.4258202 -0.7926,3.1569 -1.0898,3.8474 -1.1889,4.0447 -0.0991,0.296 -0.0991,0.6906 0.0991,0.8879 0.3962,0.5919 0.8916,0.4933 2.8731,0.296 1.0898,-0.0987 2.3777,-0.1973 3.7647,-0.296 h 0.2973 c 5.7462,-0.1973 7.1332,0.1973 7.4304,0.3946 0.8917,0.4933 1.288,0.7892 0.8917,2.3677 l -0.2972,0.9865 c -0.0991,0.2959 -0.2973,0.4932 -0.4954,0.5919 -0.2972,0.1973 -0.7926,0.1973 -1.6842,0.1973 h -1.4861 c -0.2972,0 -0.5945,0.0986 -0.7926,0.2959 -0.1982,0.1973 -0.1982,0.3946 -0.2972,0.6906 0,0.0986 -0.0991,0.0986 -0.0991,0.1973 -0.0991,0.1973 -0.0991,0.296 0,0.3946 0.0991,0.0987 0.2972,0.1973 0.3963,0.1973 0.4953,0 1.387,0 2.2787,0 1.0898,0 1.8823,-0.0986 2.4768,-0.3946 0,0 0.1981,-0.0986 0.5944,-0.3946 0.2972,-0.296 0.6935,-0.9865 0.9908,-1.7757 0,0 0,-0.0987 0,-0.1973 0,-0.0987 0.099,-0.296 0.099,-0.296 v -0.0986 c 0.5945,-2.4663 -0.1981,-3.4528 -1.5851,-4.2421 z"
     fill="#b99b68"
     id="path1"
     style="fill:#ffd42a;stroke:#000000;stroke-width:0.7;stroke-dasharray:none;stroke-opacity:1" />
  <path
     d="m 44.373455,32.161329 c -0.1981,0 -0.6935,0.1973 -0.9907,0.296 -0.1981,0.0986 -0.2972,0.2959 -0.3963,0.4932 -0.0991,0.1973 -0.0991,0.296 -0.0991,0.3946 0,0.0987 -0.099,0.296 -0.099,0.4933 0,0.0987 -0.0991,0.1973 -0.0991,0.296 l -0.0991,0.2959 c -0.2972,0.6906 -0.5944,0.8879 -2.1796,0.8879 h -0.1981 c -0.3963,0 -0.8917,0 -1.288,0 -0.1981,0 -0.5944,0 -0.7926,0.2959 -0.1981,0.1973 -0.1981,0.3946 -0.2972,0.6906 0,0.0986 -0.0991,0.0986 -0.0991,0.1973 -0.099,0.1973 -0.099,0.2959 0,0.3946 0.0991,0.0987 0.2973,0.1973 0.3963,0.1973 0.4954,0 1.3871,0 2.2787,0 2.2787,0 3.2694,-0.4933 3.8639,-2.0717 0.1981,-0.3946 0.2972,-0.7892 0.3963,-1.2825 0.099,-0.1973 0.1981,-0.4932 0.2972,-0.7892 0,-0.1973 0.099,-0.3946 0,-0.4932 -0.1982,-0.3946 -0.3963,-0.3946 -0.5945,-0.296 z"
     fill="#b99b68"
     id="path2"
     style="fill:#ffd42a;stroke:#000000;stroke-width:0.7;stroke-dasharray:none;stroke-opacity:1" />
  <path
     d="m 42.194155,37.488629 h -0.1982 -0.099 -0.0991 c -0.2972,0 -0.4954,0.0986 -0.6935,0.1973 -0.0991,0.0986 -0.2973,0.2959 -0.4954,0.6906 v 0.0986 c -1.0898,1.973 -1.6842,2.269 -2.2787,2.4663 h -0.099 c -1.3871,0.5919 -4.5574,0.6906 -7.0342,0.1973 -0.4954,-0.0987 -1.0898,-0.1973 -1.6843,-0.296 -2.1796,-0.3946 -4.3592,-0.7892 -5.6471,-0.5919 l -5.2509,0.7893 c 0,0 -0.0991,-1e-4 -0.1981,0.0986 -0.0991,0.0987 -0.0991,0.1973 -0.0991,0.3946 0,0 0,0.5919 0.0991,0.8879 0,0.0986 0.099,0.1973 0.099,0.2959 0.0991,0.0987 0.2973,0 0.2973,0 l 5.3499,-0.7892 c 1.0898,-0.1973 3.2694,0.1973 5.1518,0.5919 0.5944,0.0987 1.0898,0.1973 1.6842,0.296 1.0898,0.1973 2.3778,0.2959 3.5667,0.2959 1.8823,0 3.4675,-0.1973 4.4582,-0.5919 1.1889,-0.4932 2.1796,-1.0851 3.6657,-4.3406 0.1982,-0.296 0.1982,-0.4933 0.0991,-0.6906 -0.0991,0 -0.3963,0 -0.5944,0 z"
     fill="#b99b68"
     id="path3"
     style="fill:#ffd42a;stroke:#000000;stroke-width:0.7;stroke-dasharray:none;stroke-opacity:1" />
  <path
     d="m 46.157655,26.834329 c -0.1982,0 -0.6935,0.1973 -0.9908,0.2959 -0.1981,0.0987 -0.2972,0.296 -0.2972,0.3947 -0.0991,0.1973 -0.0991,0.2959 -0.0991,0.3946 0,0.0986 -0.099,0.2959 -0.099,0.4932 v 0.0987 c 0,0.0986 -0.0991,0.1973 -0.0991,0.1973 l -0.2972,0.2959 c -0.1982,0.3946 -0.2972,0.5919 -0.5945,0.6906 -0.2972,0.0986 -0.8916,0.1973 -1.5851,0.1973 -0.4954,0 -0.9908,0 -1.4861,0 -0.1982,0 -0.3963,0 -0.5945,0.1973 -0.099,0.0987 -0.1981,0.0986 -0.1981,0.1973 -0.1981,0.1973 -0.1981,0.3946 -0.2972,0.6906 0,0.0986 -0.0991,0.0986 -0.0991,0.1973 -0.0991,0.1973 -0.0991,0.2959 0,0.3946 0.0991,0.0986 0.2972,0.1973 0.3963,0.1973 0.4954,0 1.387,0 2.2787,0 1.1888,0 1.9814,-0.1973 2.5759,-0.4933 0.5944,-0.2959 0.9907,-0.7892 1.2879,-1.6771 0.1982,-0.3946 0.2972,-0.8878 0.4954,-1.2824 0.0991,-0.1973 0.1981,-0.4933 0.1981,-0.6906 0.0991,-0.1973 0.0991,-0.3946 0,-0.4933 -0.1981,-0.3946 -0.3963,-0.3946 -0.4953,-0.2959 z"
     fill="#b99b68"
     id="path4"
     style="fill:#ffd42a;stroke:#000000;stroke-width:0.7;stroke-dasharray:none;stroke-opacity:1" />
  <path
     d="m 15.246155,20.421929 c 0,-0.4933 -0.3963,-0.7892 -0.8917,-0.7892 H 9.9952949 c -0.09907,0 -0.29722,0 -0.39629,0.0986 -0.09908,0.0987 0,0.296 0,0.3946 0,0.0987 0.09907,0.0987 0.09907,0.1973 0.09907,0.1973 0.19815,0.3946 0.29722,0.5919 0.1981401,0.296 0.6935601,0.296 0.8916601,0.296 h 2.3777 c 0.1982,0 0.1982,0 0.1982,0.0986 l 0.5944,8.9773 c 0,0.0987 0,0.1973 0,0.296 0,0.1973 0,0.1973 -0.099,0.1973 h -2.7741 c -0.0991,0 -0.2972,0 -0.3963,0.0986 -0.099,0.0987 0,0.296 0,0.3946 0,0.0987 0.0991,0.0987 0.0991,0.1974 0.0991,0.1973 0.1981,0.3946 0.2972,0.6905 0.1982,0.296 0.5945,0.296 0.8917,0.296 h 1.8824 c 0.1981,0 0.2972,0 0.2972,0.0986 l 0.5944,9.1746 c 0,0.1973 0,0.1973 -0.0991,0.1973 h -3.9629 c 0,0 -0.1981,0 -0.2972,0 -0.19814,0 -1.0898001,-0.0986 -1.2879401,-0.8878 -0.09908,-0.296 -0.09908,-0.9866 -0.19815,-1.1839 0,0 -0.19815,-2.9595 -0.29722,-4.5379 0,-0.296 0,-0.4933 -0.09907,-0.7892 v -0.1973 -0.0987 c -0.09907,-0.9865 -0.39629,-1.5784 -0.99073,-2.1703 -0.19815,-0.0987 -0.39629,-0.296 -0.59444,-0.3946 0.69351,-0.592 0.99073,-1.0852 1.18888,-1.7758 0.19814,-0.6905 0.09907,-2.3676 0.09907,-2.4663 l -0.19815,-4.242 c 0,-0.0986 -0.09907,-0.9865 -0.19814,-1.4798 -0.39629,-1.7757 -2.27868,-2.1703 -2.97219,-2.1703 h -3.76477 c -0.19814604,0 -0.49536404,0.0987 -0.59443704,0.296 -0.1981462,0.1973 -0.2972191,0.3946 -0.1981462,0.5919 l 1.28794324,22.5912 c 0,0.4933 0.3963,0.7892 0.89166,0.7892 h 2.77404 c 0.09908,0 0.29722,0 0.39629,-0.0986 0.09908,-0.0987 0,-0.296 0,-0.3946 0,-0.0987 0,-0.0987 -0.09907,-0.1974 -0.09907,-0.1973 -0.19814,-0.3946 -0.29722,-0.6905 -0.19814,-0.296 -0.69351,-0.296 -0.89165,-0.296 h -0.79259 c -0.29722,0 -0.29722,0 -0.29722,-0.0986 l -1.28794,-20.6182 h 2.67497 c 0,0 1.0898,0 1.28794,0.8878 0.09908,0.296 0.09908,1.0852 0.19815,1.1839 0,0 0.09907,2.1703 0.19814,4.1433 0.19815,2.3677 -0.19814,2.6636 -0.39629,2.8609 -0.39629,0.3946 -0.69351,0.6906 -0.89165,0.7892 -0.19815,0.0987 -0.39629,0.1974 -0.49537,0.296 -0.09907,0 -0.19814,0.0987 -0.19814,0.0987 0,0 -0.09908,0.0986 -0.09908,0.1973 0,0.0986 0.09908,0.1973 0.49537,0.3946 0.29722,0.0986 0.59444,0.2959 1.18887,0.6905 0.19815,0.0987 0.39629,0.296 0.59444,0.5919 0,0 0,0.0987 0.09907,0.0987 -0.09907,0 -0.09907,0.0986 -0.09907,0.1973 0.19815,0.4933 0.29722,0.9865 0.29722,1.5784 0,0.0987 0,0.296 0,0.3946 l 0.29722,4.3407 c 0,0.296 0.09907,0.9865 0.19814,1.4798 0.3963,1.7757 2.27868,2.1703 2.9721601,2.1703 h 5.35 c 0.1981,0 0.4953,-0.0986 0.5944,-0.2959 0.1981,-0.1973 0.2972,-0.3946 0.1982,-0.592 z"
     fill="#231f20"
     id="path5"
     style="fill:#f2f2f2;fill-opacity:1;stroke:#000000;stroke-width:0.7;stroke-dasharray:none;stroke-opacity:1" />
</svg>