<?xml version="1.0" encoding="UTF-8"?>
<svg id="Layer_1" data-name="Layer 1" xmlns="http://www.w3.org/2000/svg" xmlns:xlink="http://www.w3.org/1999/xlink" viewBox="0 0 960 960">
  <defs>
    <style>
      .cls-1 {
        fill: url(#linear-gradient);
      }

      .cls-1, .cls-2 {
        stroke-width: 0px;
      }

      .cls-2 {
        fill: url(#linear-gradient-2);
      }
    </style>
    <linearGradient id="linear-gradient" x1="54.51" y1="119.8" x2="912.41" y2="119.8" gradientTransform="translate(0 962) scale(1 -1)" gradientUnits="userSpaceOnUse">
      <stop offset="0" stop-color="#90cea1"/>
      <stop offset=".56" stop-color="#3cbec9"/>
      <stop offset="1" stop-color="#00b3e5"/>
    </linearGradient>
    <linearGradient id="linear-gradient-2" x1="46.69" y1="591.37" x2="902.94" y2="591.37" xlink:href="#linear-gradient"/>
  </defs>
  <g id="Layer_2" data-name="Layer 2">
    <g id="Layer_1-2" data-name="Layer 1-2">
      <path class="cls-1" d="M656.48,897.37h200.5c30.62,0,55.44-24.82,55.44-55.44h0c.05-30.62-24.73-55.48-55.35-55.54-.03,0-.06,0-.09,0h-200.5c-30.62,0-55.44,24.82-55.44,55.44,0,.03,0,.06,0,.09h0c0,30.62,24.82,55.44,55.44,55.44h0ZM86.2,897.53h24.47v-89.42h31.69v-21.71H54.51v21.65h31.69v89.49ZM174.37,897.53h24.47v-85.25h.31l28.08,85.19h18.83l29.02-85.19h.31v85.19h24.47v-111.07h-36.87l-25.73,72.48h-.31l-25.57-72.48h-37.02v111.14ZM334.21,786.77h36.71c8.55.01,17.06,1.07,25.35,3.14,7.55,1.79,14.67,5.08,20.93,9.66,6.06,4.55,10.93,10.49,14.21,17.32,3.71,8.11,5.51,16.97,5.24,25.89.17,8.21-1.57,16.36-5.08,23.78-3.27,6.68-7.96,12.57-13.74,17.26-5.92,4.75-12.68,8.33-19.92,10.57-7.66,2.43-15.65,3.65-23.69,3.61h-40.01v-111.23ZM358.68,875.25h12.55c5.28.04,10.54-.54,15.69-1.73,4.59-.93,8.93-2.82,12.74-5.55,3.63-2.75,6.52-6.36,8.41-10.51,2.2-5.02,3.27-10.46,3.14-15.94.09-4.91-.98-9.77-3.14-14.18-1.96-3.91-4.78-7.32-8.25-9.98-3.61-2.68-7.68-4.67-12.02-5.87-4.78-1.34-9.72-2-14.68-1.98h-14.43v65.73ZM472.11,786.77h41.42c4.86,0,9.72.35,14.53,1.04,4.56.59,8.99,1.97,13.08,4.08,3.82,1.98,7.07,4.92,9.41,8.53,2.6,4.41,3.86,9.48,3.61,14.59.22,5.69-1.65,11.27-5.24,15.69-3.67,4.25-8.5,7.32-13.9,8.85v.19c3.47.5,6.84,1.56,9.98,3.14,2.89,1.45,5.5,3.42,7.69,5.8,2.17,2.39,3.84,5.18,4.93,8.22,1.17,3.22,1.75,6.62,1.73,10.04.19,5.16-1.12,10.26-3.77,14.68-2.46,3.86-5.79,7.08-9.73,9.41-4.14,2.48-8.67,4.23-13.4,5.18-4.88,1.05-9.85,1.57-14.84,1.57h-45.5v-111.01ZM496.58,831.17h17.73c1.88.01,3.75-.2,5.59-.63,1.75-.38,3.42-1.07,4.93-2.04,1.47-.95,2.69-2.24,3.55-3.77.92-1.74,1.37-3.68,1.32-5.65.1-2-.38-3.98-1.38-5.71-.97-1.48-2.3-2.7-3.86-3.55-1.75-.88-3.62-1.48-5.55-1.79-1.91-.37-3.86-.56-5.8-.56h-16.63l.13,23.69ZM496.58,877.13h21.96c1.93,0,3.86-.21,5.74-.63,1.87-.38,3.65-1.13,5.24-2.2,1.58-1.04,2.9-2.44,3.86-4.08,1.03-1.87,1.54-3.98,1.47-6.12.08-2.25-.6-4.47-1.95-6.28-1.32-1.63-3.02-2.9-4.96-3.7-2.01-.84-4.12-1.42-6.28-1.73-2.13-.3-4.28-.46-6.43-.47h-18.51l-.16,25.2Z"/>
    </g>
  </g>
  <g id="Layer_2-2" data-name="Layer 2">
    <g id="Layer_1-2-2" data-name="Layer 1-2">
      <path class="cls-2" d="M282.89,370.63h0c-.08-45.14,36.46-81.8,81.6-81.88.05,0,.09,0,.14,0h-.46c45.14,0,81.74,36.6,81.74,81.74,0,.05,0,.09,0,.14h0c0,45.14-36.6,81.74-81.74,81.74h0,.46c-45.14,0-81.74-36.6-81.74-81.74ZM665.32,225.7h152.2c45.14,0,81.74-36.6,81.74-81.74h0c.08-45.14-36.46-81.8-81.6-81.88-.05,0-.09,0-.14,0h-152.2c-45.14,0-81.74,36.6-81.74,81.74,0,.05,0,.09,0,.14h0c0,45.14,36.6,81.74,81.74,81.74ZM142.59,679.04h295.6c45.14,0,81.74-36.6,81.74-81.74h0c.08-45.14-36.46-81.8-81.6-81.88-.05,0-.09,0-.14,0H142.59c-45.14,0-81.74,36.6-81.74,81.74,0,.05,0,.09,0,.14h0c0,45.14,36.6,81.74,81.74,81.74ZM530.8,452.37h28.91l67.54-163.62h-38.63l-41.17,107.32h-.46l-40.48-107.32h-41.17l65.46,163.62ZM680.91,452.37h36.08v-163.62h-36.08v163.62ZM783.61,452.37h115.42v-33.17h-79.34v-33.31h71.01v-33.31h-71.01v-30.53h75.17v-33.31h-111.02l-.23,163.62ZM93.41,225.84h36.08V93.99h46.72v-31.92H46.69v31.92h46.72v131.84ZM227.1,225.84h36.08v-70.78h69.85v70.78h36.08V62.08h-36.08v61.06h-70.08v-61.06h-35.85v163.76ZM417.93,225.84h115.65v-33.31h-79.8v-33.31h71.01v-33.31h-71.01v-30.53h75.17v-33.31h-111.02v163.76ZM52.47,452.51h35.85v-125.6h.46l41.63,125.6h27.29l43.02-125.6h.46v125.6h36.08v-163.76h-54.36l-37.93,106.86h-.46l-37.7-106.86h-54.59l.23,163.76ZM571,679.18h58.57c11.86.06,23.66-1.73,34.97-5.32,10.67-3.33,20.63-8.62,29.38-15.59,8.5-6.92,15.4-15.6,20.22-25.44,5.34-10.91,8.06-22.92,7.96-35.07.38-13.15-2.28-26.21-7.77-38.16-4.82-10.08-11.99-18.85-20.91-25.58-9.34-6.69-19.92-11.44-31.13-13.97-12.21-3.05-24.75-4.6-37.33-4.63h-54.17l.23,163.76ZM607.13,548.73h21.28c7.3-.03,14.57.94,21.6,2.87,6.47,1.76,12.56,4.71,17.95,8.7,5.12,3.9,9.27,8.94,12.12,14.71,3.18,6.5,4.76,13.67,4.63,20.91.2,8.08-1.38,16.1-4.63,23.5-2.77,6.1-7.01,11.41-12.35,15.45-5.53,4.05-11.82,6.93-18.5,8.47-7.58,1.75-15.35,2.6-23.13,2.54h-19.2l.23-97.15ZM774.31,679.18h67.08c7.35-.02,14.69-.79,21.88-2.31,6.97-1.39,13.66-3.97,19.75-7.63,5.79-3.45,10.7-8.2,14.34-13.88,3.9-6.53,5.83-14.05,5.55-21.65.04-5.05-.82-10.06-2.54-14.8-1.6-4.48-4.07-8.6-7.26-12.12-3.22-3.53-7.06-6.43-11.33-8.56-4.61-2.35-9.58-3.92-14.71-4.63v-.46c7.94-2.28,15.06-6.81,20.49-13.05,5.32-6.5,8.07-14.73,7.73-23.13.37-7.54-1.48-15.02-5.32-21.51-3.44-5.35-8.23-9.7-13.88-12.63-6.04-3.09-12.57-5.12-19.29-6.01-7.1-.97-14.25-1.47-21.42-1.48h-61.06v163.85ZM810.4,545.95h24.52c2.87.02,5.73.28,8.56.79,2.75.48,5.4,1.38,7.86,2.68,2.31,1.23,4.27,3.03,5.69,5.23,1.55,2.53,2.3,5.46,2.17,8.42.08,2.9-.59,5.77-1.94,8.33-1.25,2.26-3.05,4.17-5.23,5.55-2.22,1.43-4.68,2.45-7.26,3.01-2.7.61-5.46.92-8.23.93h-26.55l.42-34.93ZM810.4,611.41h27.29c3.17.02,6.34.25,9.48.69,3.18.43,6.29,1.29,9.25,2.54,2.85,1.17,5.36,3.03,7.31,5.41,1.99,2.66,3,5.93,2.87,9.25.12,3.15-.63,6.27-2.17,9.02-1.42,2.41-3.36,4.46-5.69,6.01-2.35,1.56-4.97,2.66-7.73,3.24-2.78.6-5.62.91-8.47.93h-32.38l.23-37.1Z"/>
    </g>
  </g>
</svg>